<?xml version="1.0" ?><svg contentScriptType="text/ecmascript" contentStyleType="text/css" enable-background="new 0 0 2048 2048" height="2048px" id="Layer_1" preserveAspectRatio="xMidYMid meet" version="1.1" viewBox="0.0 0 1536.0 2048" width="1536.0px" xml:space="preserve" xmlns="http://www.w3.org/2000/svg" xmlns:xlink="http://www.w3.org/1999/xlink" zoomAndPan="magnify"><path d="M1280,1088V960c0-17.333-6.333-32.333-19-45s-27.667-19-45-19H896V576c0-17.333-6.333-32.333-19-45s-27.667-19-45-19H704  c-17.333,0-32.333,6.333-45,19s-19,27.667-19,45v320H320c-17.333,0-32.333,6.333-45,19s-19,27.667-19,45v128  c0,17.333,6.333,32.333,19,45s27.667,19,45,19h320v320c0,17.333,6.333,32.333,19,45s27.667,19,45,19h128  c17.333,0,32.333-6.333,45-19s19-27.667,19-45v-320h320c17.333,0,32.333-6.333,45-19S1280,1105.333,1280,1088z M1536,544v960  c0,79.333-28.167,147.167-84.5,203.5S1327.333,1792,1248,1792H288c-79.333,0-147.167-28.167-203.5-84.5S0,1583.333,0,1504V544  c0-79.333,28.167-147.167,84.5-203.5S208.667,256,288,256h960c79.333,0,147.167,28.167,203.5,84.5S1536,464.667,1536,544z"/></svg>